<?xml version="1.0" encoding="UTF-8"?>
<svg xmlns="http://www.w3.org/2000/svg" id="Layer_1" data-name="Layer 1" viewBox="0 0 24 24">
  <path d="M22.987,5.451c-.028-.177-.312-1.767-1.464-2.928-1.157-1.132-2.753-1.412-2.931-1.44-.237-.039-.479,.011-.682,.137-.118,.073-2.954,1.849-8.712,7.566C3.135,14.807,1.545,17.213,1.48,17.312c-.091,.14-.146,.301-.159,.467l-.319,4.071c-.022,.292,.083,.578,.29,.785,.188,.188,.443,.293,.708,.293,.025,0,.051,0,.077-.003l4.101-.316c.165-.013,.324-.066,.463-.155,.1-.064,2.523-1.643,8.585-7.662,5.759-5.718,7.548-8.535,7.622-8.652,.128-.205,.178-.45,.14-.689Zm-9.17,7.922c-4.93,4.895-7.394,6.78-8.064,7.263l-2.665,.206,.206-2.632c.492-.672,2.393-3.119,7.312-8.004,1.523-1.512,2.836-2.741,3.942-3.729,.01,.002,.02,.004,.031,.006,.012,.002,1.237,.214,2.021,.98,.772,.755,.989,1.93,.995,1.959,0,.004,.002,.007,.002,.011-.999,1.103-2.245,2.416-3.78,3.94Zm5.309-5.684c-.239-.534-.597-1.138-1.127-1.656-.524-.513-1.134-.861-1.674-1.093,1.139-.95,1.908-1.516,2.309-1.797,.419,.124,1.049,.377,1.481,.8,.453,.456,.695,1.081,.81,1.469-.285,.4-.851,1.159-1.798,2.278Z"/>
</svg>
